<svg version="1.1" id="Layer_1" xmlns="http://www.w3.org/2000/svg" xmlns:xlink="http://www.w3.org/1999/xlink" x="0px" y="0px"
	 width="100%" viewBox="0 0 1024 1024" enable-background="new 0 0 1024 1024" xml:space="preserve">
<path fill="#000000" opacity="1.000000" stroke="none" 
	d="
M701.964966,512.719971 
	C688.804871,550.280640 664.173645,578.580872 633.475525,602.195435 
	C600.564636,627.512268 563.543762,645.334290 525.326904,660.840454 
	C517.975281,663.823364 509.581238,663.927734 502.302887,661.008728 
	C460.898529,644.403687 420.907043,625.077026 386.041992,596.646545 
	C356.229218,572.335999 333.242615,543.130859 322.157959,505.646240 
	C318.085815,491.875580 315.671875,477.821411 315.670349,463.413208 
	C315.664490,407.751190 315.628204,352.089111 315.680756,296.427155 
	C315.700226,275.817841 324.718353,260.962311 343.626770,251.909805 
	C392.000610,228.750580 440.358093,205.548645 488.439789,181.792435 
	C505.481567,173.372406 521.476685,173.168884 538.526855,181.522736 
	C586.386902,204.972061 634.492249,227.921249 682.529114,251.008881 
	C701.218567,259.991455 710.498291,274.549957 710.429932,295.471832 
	C710.240967,353.299622 710.373413,411.128387 710.337097,468.956787 
	C710.327698,483.925903 706.648987,498.227112 701.964966,512.719971 
M345.284821,486.418854 
	C348.472198,504.284760 355.457245,520.506409 365.770264,535.866089 
	C371.605835,530.312744 377.512329,526.742676 384.304688,524.554871 
	C397.417023,520.331421 410.765533,519.649597 424.215881,522.049011 
	C433.092255,523.632507 441.689911,526.192383 448.761444,532.366516 
	C451.347260,534.624146 451.528503,536.242493 449.120544,538.877258 
	C436.913971,552.233521 430.647308,567.874390 431.289124,586.162903 
	C431.555359,593.749573 434.477112,598.134155 442.104462,600.886169 
	C443.167969,595.240051 442.367401,589.585327 442.669525,583.985107 
	C443.557251,567.528442 448.877930,553.037048 461.812042,542.140930 
	C480.045288,526.780701 500.983093,520.947266 524.599731,524.561157 
	C560.017883,529.981201 581.325623,554.542053 581.381104,590.082092 
	C581.387207,593.969299 580.785095,597.939087 582.117615,602.479614 
	C586.379272,598.945801 592.136475,597.566040 592.721680,591.507629 
	C594.615234,571.905334 589.274597,554.556519 575.606201,540.148804 
	C572.418091,536.788208 572.487549,534.744629 576.226501,531.877197 
	C585.475769,524.783752 596.221008,522.092407 607.395447,521.122070 
	C624.915894,519.600769 641.647156,521.890198 655.846558,533.641602 
	C657.068115,534.652588 658.079468,536.211426 660.248230,535.952698 
	C660.917297,535.171936 661.785767,534.373840 662.398010,533.412537 
	C675.555603,512.753967 683.412842,490.273956 683.552124,465.705994 
	C683.866638,410.219421 683.549377,354.729492 683.731567,299.241760 
	C683.770447,287.385559 678.939209,279.488617 668.225403,274.343262 
	C622.739136,252.498154 577.304382,230.542358 532.018982,208.284760 
	C519.709412,202.234680 508.266876,201.903641 495.819092,208.048859 
	C449.531555,230.900146 403.026703,253.311584 356.578827,275.837402 
	C347.750854,280.118683 343.294006,286.894318 343.304535,296.808746 
	C343.366577,355.129669 343.342163,413.450684 343.341736,471.771667 
	C343.341705,476.451233 344.259949,481.006195 345.284821,486.418854 
z"/>
<path fill="#000000" opacity="1.000000" stroke="none" 
	d="
M454.621124,804.999634 
	C454.632843,772.002075 454.753265,739.503662 454.534515,707.007568 
	C454.500336,701.924988 455.939423,700.500000 460.975861,700.533630 
	C473.295349,700.615845 485.625793,699.645569 497.939545,699.847595 
	C513.708374,700.106323 529.149170,702.460205 542.967529,710.894531 
	C561.971497,722.493713 571.359985,739.687988 572.338684,761.745422 
	C572.974670,776.079163 570.551514,789.673828 562.239075,801.662537 
	C549.952881,819.382446 532.207214,827.896179 511.317108,829.073242 
	C493.042023,830.102905 474.666229,829.348694 456.334930,829.358398 
	C455.877625,829.358643 455.420197,829.075073 454.618256,828.809875 
	C454.618256,821.062378 454.618256,813.281006 454.621124,804.999634 
M483.345032,734.644104 
	C483.339172,756.616760 483.376404,778.589539 483.281342,800.561829 
	C483.266937,803.895569 483.773499,806.012207 487.835571,805.769897 
	C495.452728,805.315369 503.084137,806.145630 510.721588,804.823730 
	C526.421021,802.106445 538.173096,792.102173 541.408325,777.214539 
	C545.042603,760.490601 542.229370,745.313110 528.259705,733.924927 
	C517.991943,725.554565 505.494293,724.476685 492.883209,724.365540 
	C483.369385,724.281738 483.368744,724.354919 483.345032,734.644104 
z"/>
<path fill="#000000" opacity="1.000000" stroke="none" 
	d="
M215.793945,756.378296 
	C217.722107,742.434021 222.511124,730.265015 231.553604,719.854858 
	C256.062592,691.638855 309.570496,688.653076 332.327209,727.543335 
	C334.869598,731.888123 336.686462,736.502319 337.916656,741.376038 
	C338.623566,744.176636 338.072205,746.074707 334.794739,746.088440 
	C327.132782,746.120483 319.470459,746.084900 311.808380,746.058716 
	C309.477814,746.050781 308.269012,744.666748 307.438202,742.621765 
	C298.199982,719.883057 265.971680,718.948547 252.353226,739.420593 
	C241.721191,755.403259 242.484650,780.233093 254.503021,794.724915 
	C269.002655,812.208618 298.187805,810.412720 306.776184,789.334106 
	C307.883392,786.616638 309.638092,785.624207 312.529907,785.689636 
	C319.023468,785.836426 325.523102,785.683472 332.019653,785.734436 
	C337.383514,785.776489 338.282318,786.867981 336.722992,792.015869 
	C330.797150,811.578613 317.891266,824.195862 298.274658,829.747192 
	C269.694214,837.835327 240.189621,826.989868 225.419235,802.969849 
	C216.706024,788.800110 214.763504,773.098022 215.793945,756.378296 
z"/>
<path fill="#000000" opacity="1.000000" stroke="none" 
	d="
M804.019592,801.029907 
	C808.120178,801.025757 811.735474,801.025757 816.113586,801.025757 
	C814.522217,808.394775 811.014648,813.749573 806.408752,818.269104 
	C795.216187,829.251831 781.434509,832.836243 766.112976,831.642273 
	C750.493042,830.424866 737.854248,823.992126 729.976562,810.093323 
	C719.381653,791.400635 720.628540,760.940308 736.757141,745.323669 
	C750.615417,731.905273 767.335510,729.179321 785.360840,734.188110 
	C802.610168,738.981262 811.469177,751.746948 815.184448,768.469055 
	C816.402283,773.950134 816.559143,779.669617 817.156250,785.284851 
	C817.518311,788.689819 816.426758,790.500061 812.500061,790.478455 
	C793.511230,790.373901 774.521057,790.530396 755.531616,790.477417 
	C750.005981,790.462036 749.409668,791.142395 751.337830,796.534790 
	C756.777527,811.748169 777.301086,815.825378 787.901306,803.711975 
	C789.257141,802.162537 790.604553,801.453125 792.555115,801.412781 
	C796.215881,801.337158 799.874695,801.165588 804.019592,801.029907 
M787.302246,770.535950 
	C790.115234,770.021606 788.927734,768.056946 788.555786,766.641235 
	C786.338501,758.202148 778.728271,752.893188 769.764526,753.410583 
	C759.179260,754.021606 752.017090,760.185852 750.770447,770.575745 
	C762.746216,770.575745 774.632751,770.575745 787.302246,770.535950 
z"/>
<path fill="#000000" opacity="1.000000" stroke="none" 
	d="
M374.303894,827.968994 
	C355.617096,819.356323 346.585846,804.567505 345.744385,784.849365 
	C344.867004,764.290161 352.144958,747.366577 371.194183,737.744568 
	C399.046204,723.676331 436.041779,735.379578 442.938538,770.490540 
	C448.541779,799.016418 434.113190,824.612671 406.908112,830.785156 
	C395.826324,833.299561 385.143402,832.192932 374.303894,827.968994 
M396.257446,809.638550 
	C405.276154,808.710938 411.302948,803.780396 414.622742,795.536377 
	C418.183929,786.692871 418.325073,777.620361 414.918457,768.763123 
	C411.592468,760.115479 405.172577,754.764648 395.702576,754.447388 
	C386.178009,754.128296 379.640656,759.199341 375.757263,767.647827 
	C371.342621,777.251831 371.364441,787.057922 375.794067,796.599548 
	C379.600250,804.798462 386.102631,809.476868 396.257446,809.638550 
z"/>
<path fill="#000000" opacity="1.000000" stroke="none" 
	d="
M679.945984,830.302368 
	C674.293518,830.293213 669.125488,830.139709 663.969788,830.325500 
	C660.772583,830.440735 659.207458,829.093506 658.120178,826.179993 
	C647.128296,796.725464 636.028625,767.311157 624.991333,737.873535 
	C624.599060,736.827393 624.539062,735.656738 624.177612,733.785339 
	C633.475952,733.785339 642.397156,733.729187 651.316895,733.817017 
	C654.273560,733.846130 654.322327,736.588135 654.954163,738.519775 
	C660.793457,756.371277 666.556396,774.247681 672.352905,792.113220 
	C672.910950,793.833069 673.546387,795.527771 674.321167,797.733154 
	C677.012817,793.265991 678.010986,788.734070 679.478149,784.417114 
	C684.722595,768.985840 689.894531,753.528748 694.916199,738.023926 
	C695.953064,734.822510 697.510864,733.524902 700.961914,733.626099 
	C708.907532,733.858887 716.864502,733.699890 724.436218,733.699890 
	C725.921997,736.032898 724.782654,737.523499 724.225159,739.004761 
	C713.385925,767.804810 702.316223,796.520447 691.791382,825.434631 
	C689.389648,832.032715 684.691040,829.844177 679.945984,830.302368 
z"/>
<path fill="#000000" opacity="1.000000" stroke="none" 
	d="
M586.998657,794.000000 
	C587.014648,775.525940 587.022644,757.551819 587.043518,739.577759 
	C587.051025,733.153503 587.195190,733.196594 593.433838,733.427612 
	C599.407837,733.648804 605.400146,733.568237 611.378235,733.400879 
	C614.273865,733.319763 615.181946,734.558838 615.177124,737.243530 
	C615.123840,766.867554 615.109985,796.491577 615.112061,826.115662 
	C615.112305,828.976501 613.990662,830.373962 610.950684,830.320435 
	C604.628418,830.208923 598.294556,830.098633 591.981323,830.364563 
	C587.815979,830.540039 586.927795,828.606628 586.976318,824.955566 
	C587.111267,814.805420 587.006042,804.652100 586.998657,794.000000 
z"/>
<path fill="#000000" opacity="1.000000" stroke="none" 
	d="
M594.749512,694.298950 
	C608.337708,690.138367 619.947388,698.630981 618.009583,710.866943 
	C616.648132,719.463440 611.165222,724.867493 603.346497,725.319214 
	C594.958679,725.803833 588.427795,721.433289 586.195740,713.841614 
	C583.914978,706.084229 587.007324,698.789185 594.749512,694.298950 
z"/>
<path fill="#000000" opacity="1.000000" stroke="none" 
	d="
M412.556732,401.882416 
	C404.337128,406.183716 397.742584,404.698303 393.661407,397.912750 
	C390.136780,392.052521 390.819244,387.004486 396.300201,382.394135 
	C408.026398,372.530457 419.937653,362.887085 431.720551,353.090240 
	C444.401215,342.546936 457.092407,332.014221 469.644928,321.319519 
	C478.682800,313.619293 481.071625,313.591370 489.884521,321.663422 
	C499.958984,330.891022 510.175385,339.964294 520.201660,349.243408 
	C522.764099,351.614899 524.566711,351.916718 527.298889,349.349548 
	C543.690369,333.948181 560.185608,318.655853 576.772156,303.464752 
	C579.663696,300.816498 579.934082,298.906494 576.940002,296.251801 
	C574.333435,293.940704 571.911499,291.363892 569.724365,288.649567 
	C565.715454,283.674377 567.666931,278.586365 574.016418,277.898102 
	C585.740051,276.627258 597.494995,275.612305 609.254395,274.720398 
	C614.222900,274.343536 619.135071,273.277924 624.173828,273.626740 
	C628.890808,273.953308 630.456177,275.557281 629.617676,280.295929 
	C626.928650,295.493073 624.107422,310.666870 621.329102,325.848175 
	C620.792603,328.779419 619.589661,331.359070 616.545288,332.311493 
	C613.314148,333.322388 610.764709,331.937195 608.578064,329.521301 
	C605.681885,326.321472 602.667908,323.228210 599.271240,319.630127 
	C590.454834,327.546600 581.846436,335.321960 573.187439,343.040558 
	C560.502991,354.347412 547.783386,365.614807 535.074463,376.894165 
	C534.327087,377.557495 533.554382,378.193909 532.771851,378.815613 
	C523.378540,386.278748 521.114014,386.096710 512.463989,377.966461 
	C502.630188,368.723633 492.548187,359.743378 482.785736,350.427185 
	C480.046539,347.813202 478.298553,347.691772 475.338745,350.157898 
	C454.605347,367.432861 433.715820,384.520386 412.556732,401.882416 
z"/>
<path fill="#000000" opacity="1.000000" stroke="none" 
	d="
M531.862915,512.013672 
	C508.038696,525.211914 481.839935,513.537415 476.114532,487.505615 
	C471.672791,467.310120 485.458527,446.959656 506.326263,442.907227 
	C525.865540,439.112762 546.227966,452.977509 549.009583,472.863037 
	C551.253052,488.901001 546.129211,502.440094 531.862915,512.013672 
z"/>
<path fill="#000000" opacity="1.000000" stroke="none" 
	d="
M384.087646,502.838989 
	C369.794495,483.305603 374.678070,460.178436 395.127167,450.279846 
	C407.356506,444.360138 419.123444,446.019501 429.758636,454.215271 
	C440.859344,462.769714 444.806976,474.356781 441.725525,487.868866 
	C438.698486,501.142517 430.281372,509.885254 416.947327,513.194946 
	C404.183716,516.363037 393.375366,512.372437 384.087646,502.838989 
z"/>
<path fill="#000000" opacity="1.000000" stroke="none" 
	d="
M599.402039,510.866394 
	C585.780334,502.845398 579.292114,490.522552 581.866821,475.972351 
	C584.324280,462.084442 592.873413,453.198853 606.569153,449.465729 
	C624.247314,444.647125 642.949463,455.475464 646.749329,473.685913 
	C650.718201,492.706787 640.474670,508.156342 622.586365,513.255310 
	C614.745728,515.490173 607.109924,514.314270 599.402039,510.866394 
z"/>
<path fill="#000000" opacity="1.000000" stroke="none" 
	d="
M628.397705,416.000153 
	C628.398743,424.455750 628.398743,432.411285 628.398743,440.822784 
	C615.648926,437.960846 603.464417,438.249939 592.303406,444.890076 
	C590.089600,443.264435 590.786865,441.276306 590.783203,439.581085 
	C590.727539,413.625549 590.718079,387.669861 590.739929,361.714233 
	C590.746582,353.775757 592.895569,351.664368 600.741638,351.643951 
	C607.064148,351.627502 613.386780,351.616516 619.709229,351.633270 
	C627.682861,351.654358 628.363037,352.314606 628.370850,360.094757 
	C628.389404,378.563202 628.389282,397.031677 628.397705,416.000153 
z"/>
<path fill="#000000" opacity="1.000000" stroke="none" 
	d="
M575.045532,457.811340 
	C575.479004,465.443237 571.843323,471.793976 570.880859,478.723053 
	C570.461365,481.743011 567.031189,480.392975 565.186157,479.007538 
	C562.706238,477.145416 561.458862,474.278503 560.791626,471.349945 
	C557.887939,458.605530 550.992126,448.543488 540.545532,440.864166 
	C538.598999,439.433228 537.740479,437.815704 537.764160,435.425598 
	C537.902771,421.463806 537.337708,407.491119 538.654053,393.549805 
	C539.007874,389.802979 540.652222,387.667999 544.579712,387.666321 
	C552.070068,387.663116 559.561096,387.586761 567.050476,387.670380 
	C572.249878,387.728424 573.967102,389.712372 574.356262,394.972748 
	C575.893188,415.749207 574.793579,436.550049 575.045532,457.811340 
z"/>
<path fill="#000000" opacity="1.000000" stroke="none" 
	d="
M463.949768,419.058411 
	C465.705719,421.089844 465.325134,423.160858 465.329742,425.119720 
	C465.360535,438.260864 465.250183,451.403137 465.389465,464.542847 
	C465.444244,469.708832 462.977478,473.779053 460.445312,477.866669 
	C459.199280,479.878143 457.141205,480.611084 454.797516,480.192169 
	C452.150055,479.718994 452.886566,477.493469 452.660492,475.805450 
	C450.846039,462.258118 443.632141,452.042908 432.738586,444.333008 
	C429.801910,442.254578 428.429810,440.117035 428.674927,436.564270 
	C428.926270,432.921356 428.545471,429.232941 428.827911,425.594452 
	C429.283661,419.723907 431.609924,417.687897 437.407715,417.659424 
	C444.227692,417.625916 451.048035,417.626068 457.867950,417.663422 
	C459.834381,417.674194 461.896851,417.354553 463.949768,419.058411 
z"/>
<path fill="#000000" opacity="1.000000" stroke="none" 
	d="
M483.649414,436.292694 
	C483.650574,427.036621 483.610626,418.203674 483.666534,409.371338 
	C483.711945,402.199341 486.192383,399.702637 493.215851,399.666534 
	C499.881836,399.632263 506.549652,399.582031 513.213806,399.700104 
	C518.455017,399.792938 521.171387,402.480865 521.285217,407.765778 
	C521.425110,414.262207 521.271667,420.764435 521.335449,427.263275 
	C521.360596,429.827423 520.669434,431.476746 517.703613,431.313202 
	C505.590454,430.645172 494.804810,434.659363 484.748688,440.904938 
	C482.956635,439.738434 483.924866,438.078003 483.649414,436.292694 
z"/>
</svg>