<svg width="31" height="38" viewBox="0 0 31 38" fill="none" xmlns="http://www.w3.org/2000/svg">
<g clip-path="url(#clip0_153_39)">
<path d="M21.4014 4.59883C20.6245 4.59883 19.9951 5.19372 19.9951 5.92696C19.9951 6.11289 20.0364 6.2892 20.1091 6.45013L18.1201 7.25508L16.4562 4.42673C16.8873 4.1994 17.1826 3.76964 17.1826 3.27071C17.1826 2.53747 16.5532 1.94258 15.7764 1.94258C14.9995 1.94258 14.3701 2.53747 14.3701 3.27071C14.3701 3.76964 14.6654 4.1994 15.0966 4.42673L13.4326 7.25508L11.4436 6.45013C11.5164 6.2892 11.5576 6.11289 11.5576 5.92696C11.5576 5.19372 10.9282 4.59883 10.1514 4.59883C9.37453 4.59883 8.74512 5.19372 8.74512 5.92696C8.74512 6.66019 9.37453 7.25508 10.1514 7.25508C10.2604 7.25508 10.3649 7.24036 10.4672 7.21878L11.5576 11.6822V12.5676C11.5576 13.057 11.9774 13.453 12.4951 13.453H19.0576C19.5754 13.453 19.9951 13.057 19.9951 12.5676V11.6822L21.086 7.21878C21.1876 7.24125 21.2924 7.25508 21.4014 7.25508C22.1782 7.25508 22.8076 6.66019 22.8076 5.92696C22.8076 5.19372 22.1782 4.59883 21.4014 4.59883ZM15.7764 2.828C16.035 2.828 16.2451 3.02688 16.2451 3.27071C16.2451 3.51453 16.035 3.71341 15.7764 3.71341C15.5177 3.71341 15.3076 3.51453 15.3076 3.27071C15.3076 3.02688 15.5177 2.828 15.7764 2.828ZM9.68262 5.92696C9.68262 5.68313 9.89273 5.48425 10.1514 5.48425C10.41 5.48425 10.6201 5.68313 10.6201 5.92696C10.6201 6.17078 10.41 6.36966 10.1514 6.36966C9.89273 6.36966 9.68262 6.17078 9.68262 5.92696ZM19.0576 12.5676H12.4951V11.6822H19.0576V12.5676ZM19.249 10.7967H12.3038L11.4803 7.42807L13.0632 8.06878C13.1831 8.11715 13.3085 8.1405 13.4321 8.1405C13.7636 8.1405 14.0822 7.97448 14.252 7.68484L15.7764 5.09433L17.3007 7.68484C17.4705 7.97448 17.7892 8.1405 18.1206 8.1405C18.2442 8.1405 18.3696 8.11715 18.4895 8.06878L20.0725 7.42807L19.249 10.7967ZM21.4014 6.36966C21.1427 6.36966 20.9326 6.17078 20.9326 5.92696C20.9326 5.68313 21.1427 5.48425 21.4014 5.48425C21.66 5.48425 21.8701 5.68313 21.8701 5.92696C21.8701 6.17078 21.66 6.36966 21.4014 6.36966Z" fill="#FFA000"/>
</g>
<path d="M15.7764 20.8228C18.883 20.8228 21.4014 18.3044 21.4014 15.1978C21.4014 12.0912 18.883 9.57278 15.7764 9.57278C12.6698 9.57278 10.1514 12.0912 10.1514 15.1978C10.1514 18.3044 12.6698 20.8228 15.7764 20.8228Z" fill="#FFCE2D"/>
<path d="M27.0264 30.1978C27.0264 27.0911 24.5081 24.5728 21.4014 24.5728H10.1514C7.04477 24.5728 4.52637 27.0911 4.52637 30.1978V35.8228H27.0264V30.1978Z" fill="#FFCE2D"/>
<defs>
<clipPath id="clip0_153_39">
<rect width="15" height="14.1667" fill="white" transform="translate(8.27637 0.614456)"/>
</clipPath>
</defs>
</svg>
