<svg width="42" height="43" viewBox="0 0 42 43" fill="none" xmlns="http://www.w3.org/2000/svg">
<path d="M27.5386 16.34L20.8077 19.8875L14.0769 16.34L5.74023 33.7908L10.9336 33.2533L13.5986 37.9475L20.8077 22.8975L28.0169 37.9475L30.6819 33.2533L35.8752 33.7908L27.5386 16.34Z" fill="#E24255"/>
<path d="M20.8073 28.165C26.8834 28.165 31.809 22.9991 31.809 16.6267C31.809 10.2542 26.8834 5.08833 20.8073 5.08833C14.7313 5.08833 9.80566 10.2542 9.80566 16.6267C9.80566 22.9991 14.7313 28.165 20.8073 28.165Z" fill="#FFC54D"/>
<path d="M20.8073 25.6925C25.5813 25.6925 29.4514 21.6336 29.4514 16.6267C29.4514 11.6197 25.5813 7.56084 20.8073 7.56084C16.0332 7.56084 12.1631 11.6197 12.1631 16.6267C12.1631 21.6336 16.0332 25.6925 20.8073 25.6925Z" fill="#E8B04B"/>
<path d="M21.218 11.18L22.653 14.19C22.7214 14.3333 22.858 14.4408 22.9947 14.4767L26.1722 14.9783C26.548 15.05 26.7189 15.5158 26.4455 15.8025L24.1564 18.1675C24.0539 18.275 23.9855 18.4542 24.0197 18.5975L24.5664 21.93C24.6347 22.3242 24.2247 22.6467 23.883 22.4317L21.0472 20.855C20.9105 20.7833 20.7397 20.7833 20.603 20.855L17.733 22.4317C17.3914 22.6108 16.9814 22.3242 17.0497 21.93L17.5964 18.5975C17.6305 18.4542 17.5622 18.275 17.4597 18.1675L15.1705 15.8025C14.8972 15.5158 15.0339 15.0142 15.4439 14.9783L18.6214 14.4767C18.758 14.4408 18.8947 14.3692 18.963 14.19L20.398 11.18C20.5689 10.8217 21.0472 10.8217 21.218 11.18Z" fill="white"/>
</svg>
